<svg width="45" height="33" viewBox="0 0 45 33" fill="none" xmlns="http://www.w3.org/2000/svg">
    <path d="M40.7812 5.95312H40.0781V3.84375C40.0781 3.65727 40.004 3.47843 39.8722 3.34657C39.7403 3.2147 39.5615 3.14062 39.375 3.14062H38.6719V1.03125C38.6719 0.84477 38.5978 0.665927 38.4659 0.534066C38.3341 0.402204 38.1552 0.328125 37.9688 0.328125H33.75C33.5635 0.328125 33.3847 0.402204 33.2528 0.534066C33.121 0.665927 33.0469 0.84477 33.0469 1.03125V3.14062H32.3438C32.1573 3.14062 31.9784 3.2147 31.8466 3.34657C31.7147 3.47843 31.6406 3.65727 31.6406 3.84375V5.95312H26.3039L23.7023 3.34453C23.6366 3.27936 23.5587 3.22781 23.4731 3.19282C23.3874 3.15783 23.2957 3.14009 23.2031 3.14062H4.21875C3.75707 3.14062 3.29991 3.23156 2.87338 3.40824C2.44684 3.58491 2.05928 3.84387 1.73283 4.17033C1.07352 4.82964 0.703125 5.72385 0.703125 6.65625V29.1562C0.703125 30.0887 1.07352 30.9829 1.73283 31.6422C2.05928 31.9686 2.44684 32.2276 2.87338 32.4043C3.29991 32.5809 3.75707 32.6719 4.21875 32.6719H40.7812C41.7137 32.6719 42.6079 32.3015 43.2672 31.6422C43.9265 30.9829 44.2969 30.0887 44.2969 29.1562V9.46875C44.2969 8.53635 43.9265 7.64214 43.2672 6.98283C42.6079 6.32352 41.7137 5.95312 40.7812 5.95312V5.95312ZM34.4531 1.73438H37.2656V3.14062H34.4531V1.73438ZM33.0469 4.54688H38.6719V5.95312H33.0469V4.54688ZM4.21875 4.54688H22.9148L25.5164 7.15547C25.5821 7.22063 25.66 7.27219 25.7457 7.30718C25.8314 7.34217 25.9231 7.35991 26.0156 7.35938H40.7812C41.3407 7.35938 41.8772 7.58161 42.2728 7.9772C42.6684 8.37278 42.8906 8.90931 42.8906 9.46875V12.9844H30.9375C29.9604 11.6668 28.6883 10.5964 27.2231 9.85891C25.7579 9.12139 24.1403 8.73725 22.5 8.73725C20.8597 8.73725 19.2421 9.12139 17.7769 9.85891C16.3117 10.5964 15.0396 11.6668 14.0625 12.9844H2.10938V6.65625C2.10938 6.09681 2.33161 5.56028 2.7272 5.1647C3.12278 4.76911 3.65931 4.54688 4.21875 4.54688V4.54688ZM13.3594 19.3125C13.3594 17.5047 13.8955 15.7374 14.8998 14.2342C15.9042 12.7311 17.3318 11.5595 19.002 10.8677C20.6723 10.1758 22.5101 9.99482 24.2832 10.3475C26.0564 10.7002 27.6851 11.5708 28.9634 12.8491C30.2417 14.1274 31.1123 15.7561 31.465 17.5293C31.8177 19.3024 31.6367 21.1402 30.9448 22.8105C30.253 24.4807 29.0814 25.9083 27.5783 26.9127C26.0751 27.917 24.3078 28.4531 22.5 28.4531C20.0758 28.4531 17.7508 27.4901 16.0366 25.7759C14.3224 24.0617 13.3594 21.7367 13.3594 19.3125V19.3125ZM14.0625 25.6406H2.10938V14.3906H13.1766C12.236 16.1551 11.8197 18.1517 11.9767 20.145C12.1337 22.1383 12.8574 24.0451 14.0625 25.6406V25.6406ZM33.0469 19.3125C33.0492 17.5963 32.629 15.906 31.8234 14.3906H42.8906V25.6406H30.9375C32.3108 23.8172 33.0515 21.5953 33.0469 19.3125V19.3125ZM40.7812 31.2656H4.21875C3.65931 31.2656 3.12278 31.0434 2.7272 30.6478C2.33161 30.2522 2.10938 29.7157 2.10938 29.1562V27.0469H15.3563C17.2957 28.8549 19.8485 29.8602 22.5 29.8602C25.1515 29.8602 27.7043 28.8549 29.6437 27.0469H42.8906V29.1562C42.8906 29.7157 42.6684 30.2522 42.2728 30.6478C41.8772 31.0434 41.3407 31.2656 40.7812 31.2656V31.2656Z" fill="currentColor" />
    <path d="M22.5 27.0469C24.0297 27.0469 25.5251 26.5933 26.797 25.7434C28.0689 24.8935 29.0602 23.6856 29.6456 22.2723C30.231 20.859 30.3842 19.3039 30.0858 17.8036C29.7873 16.3033 29.0507 14.9251 27.969 13.8435C26.8874 12.7618 25.5092 12.0252 24.0089 11.7267C22.5086 11.4283 20.9535 11.5815 19.5402 12.1669C18.1269 12.7523 16.919 13.7436 16.0691 15.0155C15.2192 16.2874 14.7656 17.7828 14.7656 19.3125C14.7656 21.3638 15.5805 23.3311 17.031 24.7815C18.4814 26.232 20.4487 27.0469 22.5 27.0469ZM22.5 12.9844C23.7516 12.9844 24.9751 13.3555 26.0157 14.0509C27.0564 14.7462 27.8675 15.7345 28.3464 16.8908C28.8254 18.0471 28.9507 19.3195 28.7065 20.5471C28.4624 21.7746 27.8597 22.9022 26.9747 23.7872C26.0896 24.6722 24.9621 25.2749 23.7346 25.519C22.507 25.7632 21.2346 25.6379 20.0783 25.1589C18.922 24.68 17.9337 23.8689 17.2384 22.8282C16.543 21.7876 16.1719 20.5641 16.1719 19.3125C16.1719 17.6342 16.8386 16.0246 18.0253 14.8378C19.2121 13.6511 20.8217 12.9844 22.5 12.9844V12.9844Z" fill="currentColor" />
    <path d="M4.21875 11.5781H9.84375C10.0302 11.5781 10.2091 11.504 10.3409 11.3722C10.4728 11.2403 10.5469 11.0615 10.5469 10.875V6.65625C10.5469 6.46977 10.4728 6.29093 10.3409 6.15907C10.2091 6.0272 10.0302 5.95312 9.84375 5.95312H4.21875C4.03227 5.95312 3.85343 6.0272 3.72157 6.15907C3.5897 6.29093 3.51562 6.46977 3.51562 6.65625V10.875C3.51562 11.0615 3.5897 11.2403 3.72157 11.3722C3.85343 11.504 4.03227 11.5781 4.21875 11.5781ZM4.92188 7.35938H9.14062V10.1719H4.92188V7.35938Z" fill="currentColor" />
    <path d="M7.03125 17.2031C6.61406 17.2031 6.20623 17.3268 5.85934 17.5586C5.51246 17.7904 5.2421 18.1198 5.08244 18.5053C4.92279 18.8907 4.88102 19.3148 4.96241 19.724C5.0438 20.1332 5.2447 20.5091 5.5397 20.8041C5.8347 21.0991 6.21055 21.3 6.61973 21.3813C7.02891 21.4627 7.45304 21.421 7.83847 21.2613C8.22391 21.1017 8.55335 20.8313 8.78513 20.4844C9.01691 20.1375 9.14063 19.7297 9.14063 19.3125C9.14063 18.7531 8.91839 18.2165 8.5228 17.8209C8.12722 17.4254 7.59069 17.2031 7.03125 17.2031ZM7.03125 20.0156C6.89219 20.0156 6.75624 19.9744 6.64062 19.8971C6.52499 19.8199 6.43487 19.7101 6.38165 19.5816C6.32843 19.4531 6.31451 19.3117 6.34164 19.1753C6.36877 19.0389 6.43573 18.9136 6.53407 18.8153C6.6324 18.717 6.75769 18.65 6.89408 18.6229C7.03047 18.5958 7.17185 18.6097 7.30033 18.6629C7.4288 18.7161 7.53862 18.8062 7.61588 18.9219C7.69314 19.0375 7.73438 19.1734 7.73438 19.3125C7.73438 19.499 7.6603 19.6778 7.52844 19.8097C7.39657 19.9415 7.21773 20.0156 7.03125 20.0156Z" fill="currentColor" />
    <path d="M37.9688 17.2031C37.5516 17.2031 37.1437 17.3268 36.7968 17.5586C36.45 17.7904 36.1796 18.1198 36.0199 18.5053C35.8603 18.8907 35.8185 19.3148 35.8999 19.724C35.9813 20.1332 36.1822 20.5091 36.4772 20.8041C36.7722 21.0991 37.1481 21.3 37.5572 21.3813C37.9664 21.4627 38.3905 21.421 38.776 21.2613C39.1614 21.1017 39.4909 20.8313 39.7226 20.4844C39.9544 20.1375 40.0781 19.7297 40.0781 19.3125C40.0781 18.7531 39.8559 18.2165 39.4603 17.8209C39.0647 17.4254 38.5282 17.2031 37.9688 17.2031ZM37.9688 20.0156C37.8297 20.0156 37.6937 19.9744 37.5781 19.8971C37.4625 19.8199 37.3724 19.7101 37.3192 19.5816C37.2659 19.4531 37.252 19.3117 37.2791 19.1753C37.3063 19.0389 37.3732 18.9136 37.4716 18.8153C37.5699 18.717 37.6952 18.65 37.8316 18.6229C37.968 18.5958 38.1093 18.6097 38.2378 18.6629C38.3663 18.7161 38.4761 18.8062 38.5534 18.9219C38.6306 19.0375 38.6719 19.1734 38.6719 19.3125C38.6719 19.499 38.5978 19.6778 38.4659 19.8097C38.3341 19.9415 38.1552 20.0156 37.9688 20.0156Z" fill="currentColor" />
</svg>
