<svg width="54" height="54" viewBox="0 0 54 54" fill="none" xmlns="http://www.w3.org/2000/svg">
    <path d="M48.9375 14.3438H48.0938V11.8125C48.0938 11.5887 48.0049 11.3741 47.8466 11.2159C47.6884 11.0576 47.4738 10.9688 47.25 10.9688H46.4062V8.4375C46.4062 8.21372 46.3174 7.99911 46.1591 7.84088C46.0009 7.68265 45.7863 7.59375 45.5625 7.59375H40.5C40.2762 7.59375 40.0616 7.68265 39.9034 7.84088C39.7451 7.99911 39.6562 8.21372 39.6562 8.4375V10.9688H38.8125C38.5887 10.9688 38.3741 11.0576 38.2159 11.2159C38.0576 11.3741 37.9688 11.5887 37.9688 11.8125V14.3438H31.5647L28.4428 11.2134C28.364 11.1352 28.2705 11.0734 28.1677 11.0314C28.0649 10.9894 27.9548 10.9681 27.8438 10.9688H5.0625C4.50849 10.9688 3.9599 11.0779 3.44805 11.2899C2.93621 11.5019 2.47114 11.8126 2.07939 12.2044C1.28822 12.9956 0.84375 14.0686 0.84375 15.1875V42.1875C0.84375 43.3064 1.28822 44.3794 2.07939 45.1706C2.47114 45.5624 2.93621 45.8731 3.44805 46.0851C3.9599 46.2971 4.50849 46.4062 5.0625 46.4062H48.9375C50.0564 46.4062 51.1294 45.9618 51.9206 45.1706C52.7118 44.3794 53.1562 43.3064 53.1562 42.1875V18.5625C53.1562 17.4436 52.7118 16.3706 51.9206 15.5794C51.1294 14.7882 50.0564 14.3438 48.9375 14.3438ZM41.3438 9.28125H44.7188V10.9688H41.3438V9.28125ZM39.6562 12.6562H46.4062V14.3438H39.6562V12.6562ZM5.0625 12.6562H27.4978L30.6197 15.7866C30.6985 15.8648 30.792 15.9266 30.8948 15.9686C30.9976 16.0106 31.1077 16.0319 31.2188 16.0312H48.9375C49.6088 16.0312 50.2527 16.2979 50.7274 16.7726C51.2021 17.2473 51.4688 17.8912 51.4688 18.5625V22.7812H37.125C35.9524 21.2002 34.4259 19.9157 32.6677 19.0307C30.9095 18.1457 28.9684 17.6847 27 17.6847C25.0316 17.6847 23.0905 18.1457 21.3323 19.0307C19.5741 19.9157 18.0476 21.2002 16.875 22.7812H2.53125V15.1875C2.53125 14.5162 2.79793 13.8723 3.27264 13.3976C3.74734 12.9229 4.39117 12.6562 5.0625 12.6562ZM16.0312 30.375C16.0312 28.2056 16.6746 26.0849 17.8798 24.2811C19.0851 22.4773 20.7982 21.0714 22.8024 20.2412C24.8067 19.411 27.0122 19.1938 29.1399 19.617C31.2676 20.0402 33.2221 21.0849 34.7561 22.6189C36.2901 24.1529 37.3348 26.1074 37.758 28.2351C38.1812 30.3628 37.964 32.5683 37.1338 34.5726C36.3036 36.5768 34.8977 38.2899 33.0939 39.4952C31.2901 40.7004 29.1694 41.3438 27 41.3438C24.0909 41.3438 21.301 40.1881 19.2439 38.1311C17.1869 36.074 16.0312 33.2841 16.0312 30.375ZM16.875 37.9688H2.53125V24.4688H15.8119C14.6832 26.5861 14.1837 28.982 14.372 31.374C14.5604 33.766 15.4289 36.0542 16.875 37.9688ZM39.6562 30.375C39.659 28.3156 39.1548 26.2872 38.1881 24.4688H51.4688V37.9688H37.125C38.773 35.7806 39.6618 33.1143 39.6562 30.375ZM48.9375 44.7188H5.0625C4.39117 44.7188 3.74734 44.4521 3.27264 43.9774C2.79793 43.5027 2.53125 42.8588 2.53125 42.1875V39.6562H18.4275C20.7548 41.8258 23.8182 43.0322 27 43.0322C30.1818 43.0322 33.2452 41.8258 35.5725 39.6562H51.4688V42.1875C51.4688 42.8588 51.2021 43.5027 50.7274 43.9774C50.2527 44.4521 49.6088 44.7188 48.9375 44.7188Z" fill="currentColor" />
    <path d="M27 39.6563C28.8357 39.6563 30.6301 39.1119 32.1564 38.0921C33.6827 37.0722 34.8723 35.6227 35.5747 33.9268C36.2772 32.2309 36.461 30.3647 36.1029 28.5643C35.7448 26.7639 34.8608 25.1102 33.5628 23.8122C32.2648 22.5142 30.6111 21.6302 28.8107 21.2721C27.0103 20.914 25.1441 21.0978 23.4482 21.8002C21.7523 22.5027 20.3028 23.6923 19.2829 25.2186C18.2631 26.7449 17.7188 28.5393 17.7188 30.375C17.7188 32.8365 18.6966 35.1973 20.4372 36.9378C22.1777 38.6784 24.5385 39.6563 27 39.6563ZM27 22.7813C28.5019 22.7813 29.9701 23.2266 31.2189 24.061C32.4676 24.8954 33.4409 26.0814 34.0157 27.469C34.5905 28.8566 34.7408 30.3834 34.4478 31.8565C34.1548 33.3295 33.4316 34.6826 32.3696 35.7446C31.3076 36.8066 29.9545 37.5298 28.4815 37.8228C27.0084 38.1158 25.4816 37.9655 24.094 37.3907C22.7064 36.816 21.5204 35.8427 20.686 34.5939C19.8516 33.3451 19.4062 31.8769 19.4062 30.375C19.4062 28.361 20.2063 26.4295 21.6304 25.0054C23.0545 23.5813 24.986 22.7813 27 22.7813Z" fill="currentColor" />
    <path d="M5.0625 21.0938H11.8125C12.0363 21.0938 12.2509 21.0049 12.4091 20.8466C12.5674 20.6884 12.6562 20.4738 12.6562 20.25V15.1875C12.6562 14.9637 12.5674 14.7491 12.4091 14.5909C12.2509 14.4326 12.0363 14.3438 11.8125 14.3438H5.0625C4.83872 14.3438 4.62411 14.4326 4.46588 14.5909C4.30765 14.7491 4.21875 14.9637 4.21875 15.1875V20.25C4.21875 20.4738 4.30765 20.6884 4.46588 20.8466C4.62411 21.0049 4.83872 21.0938 5.0625 21.0938ZM5.90625 16.0312H10.9688V19.4062H5.90625V16.0312Z" fill="currentColor" />
    <path d="M8.4375 27.8438C7.93687 27.8438 7.44748 27.9922 7.03121 28.2703C6.61495 28.5485 6.29052 28.9438 6.09893 29.4063C5.90735 29.8689 5.85722 30.3778 5.95489 30.8688C6.05256 31.3598 6.29364 31.8109 6.64764 32.1649C7.00164 32.5189 7.45266 32.7599 7.94368 32.8576C8.43469 32.9553 8.94364 32.9052 9.40617 32.7136C9.86869 32.522 10.264 32.1975 10.5422 31.7813C10.8203 31.365 10.9688 30.8756 10.9688 30.375C10.9688 29.7037 10.7021 29.0598 10.2274 28.5851C9.75266 28.1104 9.10883 27.8438 8.4375 27.8438ZM8.4375 31.2187C8.27062 31.2187 8.10749 31.1693 7.96874 31.0766C7.82998 30.9838 7.72184 30.8521 7.65798 30.6979C7.59412 30.5437 7.57741 30.3741 7.60996 30.2104C7.64252 30.0467 7.72288 29.8964 7.84088 29.7784C7.95888 29.6604 8.10922 29.58 8.27289 29.5475C8.43657 29.5149 8.60622 29.5316 8.76039 29.5955C8.91457 29.6593 9.04634 29.7675 9.13905 29.9062C9.23177 30.045 9.28125 30.2081 9.28125 30.375C9.28125 30.5988 9.19236 30.8134 9.03412 30.9716C8.87589 31.1299 8.66128 31.2187 8.4375 31.2187Z" fill="currentColor" />
    <path d="M45.5625 27.8438C45.0619 27.8438 44.5725 27.9922 44.1562 28.2703C43.74 28.5485 43.4155 28.9438 43.2239 29.4063C43.0323 29.8689 42.9822 30.3778 43.0799 30.8688C43.1776 31.3598 43.4186 31.8109 43.7726 32.1649C44.1266 32.5189 44.5777 32.7599 45.0687 32.8576C45.5597 32.9553 46.0686 32.9052 46.5312 32.7136C46.9937 32.522 47.389 32.1975 47.6672 31.7813C47.9453 31.365 48.0938 30.8756 48.0938 30.375C48.0938 29.7037 47.8271 29.0598 47.3524 28.5851C46.8777 28.1104 46.2338 27.8438 45.5625 27.8438ZM45.5625 31.2187C45.3956 31.2187 45.2325 31.1693 45.0937 31.0766C44.955 30.9838 44.8468 30.8521 44.783 30.6979C44.7191 30.5437 44.7024 30.3741 44.735 30.2104C44.7675 30.0467 44.8479 29.8964 44.9659 29.7784C45.0839 29.6604 45.2342 29.58 45.3979 29.5475C45.5616 29.5149 45.7312 29.5316 45.8854 29.5955C46.0396 29.6593 46.1713 29.7675 46.2641 29.9062C46.3568 30.045 46.4063 30.2081 46.4063 30.375C46.4063 30.5988 46.3174 30.8134 46.1591 30.9716C46.0009 31.1299 45.7863 31.2187 45.5625 31.2187Z" fill="currentColor" />
</svg>
