<svg width="45" height="41" viewBox="0 0 45 41" fill="none" xmlns="http://www.w3.org/2000/svg">
    <path d="M32.7243 41C32.4093 41 32.0868 40.9606 31.7681 40.8763L2.77497 33.1119C0.787468 32.5644 -0.397532 30.5056 0.123717 28.5181L3.78184 14.8831C3.91684 14.3825 4.43059 14.0919 4.92934 14.2194C5.42997 14.3525 5.72622 14.8681 5.59309 15.3669L1.93684 28.9981C1.67622 29.9919 2.27247 31.0269 3.26809 31.3025L32.25 39.0631C33.2456 39.3256 34.2731 38.7331 34.5318 37.7431L35.9962 32.3169C36.1312 31.8163 36.645 31.5181 37.1456 31.655C37.6462 31.79 37.9406 32.3056 37.8075 32.8044L36.345 38.2231C35.9043 39.8919 34.3856 41 32.7243 41V41Z" fill="currentColor" />
    <path d="M41.25 29.75H11.25C9.18187 29.75 7.5 28.0681 7.5 26V3.5C7.5 1.43188 9.18187 -0.25 11.25 -0.25H41.25C43.3181 -0.25 45 1.43188 45 3.5V26C45 28.0681 43.3181 29.75 41.25 29.75ZM11.25 1.625C10.2169 1.625 9.375 2.46688 9.375 3.5V26C9.375 27.0331 10.2169 27.875 11.25 27.875H41.25C42.2831 27.875 43.125 27.0331 43.125 26V3.5C43.125 2.46688 42.2831 1.625 41.25 1.625H11.25Z" fill="currentColor" />
    <path d="M16.875 12.875C14.8069 12.875 13.125 11.1931 13.125 9.12499C13.125 7.05687 14.8069 5.375 16.875 5.375C18.9431 5.375 20.625 7.05687 20.625 9.12499C20.625 11.1931 18.9431 12.875 16.875 12.875ZM16.875 7.25C15.8419 7.25 15 8.09187 15 9.12499C15 10.1581 15.8419 11 16.875 11C17.9081 11 18.75 10.1581 18.75 9.12499C18.75 8.09187 17.9081 7.25 16.875 7.25Z" fill="currentColor" />
    <path d="M8.56883 27.7437C8.32883 27.7437 8.08883 27.6518 7.90508 27.47C7.53945 27.1043 7.53945 26.51 7.90508 26.1443L16.7607 17.2887C17.8219 16.2275 19.6763 16.2275 20.7376 17.2887L23.3738 19.925L30.6713 11.1687C31.2019 10.5331 31.9819 10.1637 32.8125 10.1562H32.8332C33.6544 10.1562 34.4325 10.5125 34.9688 11.1369L44.775 22.5781C45.1125 22.97 45.0675 23.5625 44.6738 23.9C44.2819 24.2375 43.6913 24.1944 43.3519 23.7987L33.5457 12.3575C33.3638 12.1475 33.1125 12.0312 32.8332 12.0312C32.6382 12.0144 32.295 12.1494 32.1132 12.3687L24.1576 21.9144C23.9888 22.1169 23.7432 22.2387 23.4788 22.25C23.2126 22.2687 22.9594 22.1637 22.7738 21.9762L19.4119 18.6144C19.0576 18.2619 18.4407 18.2619 18.0863 18.6144L9.2307 27.47C9.04883 27.6518 8.80883 27.7437 8.56883 27.7437V27.7437Z" fill="currentColor" />
</svg>
