<svg width="26" height="25" viewBox="0 0 26 25" fill="none" xmlns="http://www.w3.org/2000/svg">
    <path d="M13.5185 9.9943e-06C10.6711 -0.00359505 7.90801 0.968182 5.68795 2.75405C3.46788 4.53993 1.92428 7.0325 1.31335 9.81807C0.702425 12.6036 1.0609 15.5147 2.3293 18.0681C3.59768 20.6216 5.69971 22.6637 8.28649 23.8557C8.40179 23.9192 8.52887 23.9582 8.65984 23.9704C8.79082 23.9826 8.9229 23.9676 9.04788 23.9266C9.17286 23.8855 9.28808 23.8192 9.3864 23.7316C9.48471 23.6441 9.56402 23.5372 9.61939 23.4177C9.67476 23.2982 9.70502 23.1685 9.7083 23.0369C9.71157 22.9052 9.68778 22.7742 9.63841 22.6521C9.58905 22.53 9.51515 22.4193 9.42131 22.327C9.32746 22.2347 9.21568 22.1626 9.0929 22.1154C6.72608 21.0291 4.84335 19.1052 3.80624 16.7133C2.76913 14.3215 2.65076 11.6302 3.47384 9.15624C4.29692 6.6823 6.00342 4.60009 8.26569 3.30946C10.528 2.01881 13.1865 1.61071 15.7309 2.16351C18.2751 2.71631 20.5259 4.19105 22.051 6.30455C23.576 8.41804 24.2677 11.0214 23.9935 13.6145C23.7191 16.2077 22.4981 18.6079 20.5647 20.3544C18.6313 22.1008 16.122 23.0704 13.5185 23.0769C13.2639 23.0769 13.0197 23.1782 12.8397 23.3585C12.6597 23.5389 12.5585 23.7834 12.5585 24.0384C12.5585 24.2934 12.6597 24.538 12.8397 24.7183C13.0197 24.8986 13.2639 25 13.5185 25C16.8284 25 20.0027 23.683 22.3432 21.3389C24.6836 18.9946 25.9985 15.8152 25.9985 12.5C25.9985 9.1848 24.6836 6.00537 22.3432 3.66118C20.0027 1.31697 16.8284 9.9943e-06 13.5185 9.9943e-06Z" fill="currentColor" />
    <path d="M20.3345 11.1252C20.4779 11.2067 20.6399 11.2497 20.8048 11.2502C21.0166 11.2496 21.2222 11.1789 21.3895 11.0491C21.557 10.9192 21.6769 10.7376 21.7305 10.5324C21.7842 10.3273 21.7687 10.1101 21.6863 9.91472C21.604 9.71935 21.4594 9.55671 21.2752 9.45215C17.4352 7.26946 12.4049 6.72139 6.33763 7.78869C6.21344 7.81075 6.09479 7.85709 5.98847 7.92509C5.88216 7.99308 5.79028 8.0814 5.71806 8.18498C5.64585 8.28857 5.59472 8.40539 5.56761 8.52878C5.54049 8.65216 5.53792 8.77969 5.56003 8.90408C5.58205 9.02847 5.62832 9.14732 5.69621 9.2538C5.7641 9.36028 5.85227 9.45231 5.95569 9.52464C6.05911 9.59697 6.17575 9.64818 6.29894 9.67534C6.42213 9.7025 6.54945 9.70508 6.67364 9.68292C12.2896 8.65408 16.8784 9.17331 20.3345 11.1252Z" fill="currentColor" />
    <path d="M7.43248 13.4615C12.1172 12.423 15.9381 12.923 18.8085 14.9422C18.9705 15.0597 19.1652 15.1236 19.3653 15.1249C19.5201 15.1246 19.6724 15.0869 19.8095 15.0149C19.9466 14.943 20.0643 14.8388 20.1525 14.7115C20.2982 14.5034 20.3558 14.246 20.3127 13.9956C20.2695 13.7451 20.129 13.522 19.922 13.3749C16.5909 11.0192 12.242 10.423 7.01968 11.5768C6.76507 11.6317 6.54264 11.7856 6.40131 12.0046C6.25998 12.2238 6.21134 12.4901 6.26608 12.7451C6.32082 13.0001 6.47446 13.223 6.69321 13.3645C6.91195 13.5061 7.17787 13.5547 7.43248 13.4999V13.4615Z" fill="currentColor" />
    <path d="M8.25806 17.1058C11.9061 16.3654 14.8725 16.7212 17.0901 18.1539C17.2446 18.2539 17.4245 18.3072 17.6085 18.3077C17.8155 18.3072 18.0168 18.2396 18.1824 18.1151C18.3478 17.9906 18.4688 17.8159 18.5271 17.617C18.5854 17.418 18.578 17.2055 18.5058 17.0112C18.4336 16.8168 18.3007 16.6511 18.1268 16.5384C15.4389 14.8173 12.0309 14.4231 7.88366 15.2212C7.62906 15.2709 7.40459 15.4199 7.25967 15.6354C7.11473 15.8508 7.06122 16.1152 7.11086 16.3702C7.1605 16.6252 7.30927 16.85 7.52441 16.9952C7.73955 17.1404 8.00346 17.194 8.25806 17.1443V17.1058Z" fill="currentColor" />
</svg>
