<svg width="33" height="25" viewBox="0 0 33 25" fill="none" xmlns="http://www.w3.org/2000/svg">
    <path d="M21.5106 11.0218L14.2434 7.04552C13.8256 6.81689 13.3317 6.82543 12.9221 7.06811C12.5123 7.31105 12.2678 7.7402 12.2678 8.21653V16.1009C12.2678 16.575 12.5108 17.0034 12.9178 17.2465C13.1304 17.3735 13.366 17.4373 13.6022 17.4373C13.8185 17.4373 14.0354 17.3838 14.2349 17.2764L21.5023 13.3686C21.9338 13.1365 22.203 12.688 22.205 12.1979C22.2068 11.7077 21.9408 11.2572 21.5106 11.0218ZM14.1955 15.1091V9.21638L19.6269 12.1883L14.1955 15.1091Z" fill="currentColor" />
    <path d="M32.6527 5.91627L32.6512 5.90121C32.6233 5.63644 32.346 3.28138 31.2011 2.08352C29.8777 0.674597 28.3775 0.503438 27.6559 0.421372C27.5962 0.414596 27.5415 0.408322 27.4926 0.401797L27.4351 0.395774C23.0864 0.0795568 16.5188 0.0363906 16.4531 0.0361396L16.4473 0.0358887L16.4415 0.0361396C16.3758 0.0363906 9.80825 0.0795568 5.42036 0.395774L5.36239 0.401797C5.31571 0.408071 5.26426 0.413843 5.2083 0.420368C4.49505 0.502685 3.01084 0.674095 1.68373 2.13396C0.593283 3.31902 0.27807 5.62364 0.245696 5.88264L0.241931 5.91627C0.232143 6.02644 0 8.64929 0 11.2824V13.7439C0 16.377 0.232143 18.9999 0.241931 19.1103L0.243688 19.1269C0.271545 19.3874 0.548612 21.6993 1.68825 22.8976C2.93254 24.2594 4.50584 24.4396 5.3521 24.5364C5.48586 24.5517 5.60106 24.5648 5.67961 24.5786L5.75565 24.5891C8.26657 24.8281 16.1391 24.9458 16.4729 24.9505L16.4829 24.9508L16.493 24.9505C16.5587 24.9503 23.126 24.9071 27.4747 24.5909L27.5322 24.5849C27.5872 24.5776 27.6489 24.5711 27.7167 24.564C28.4259 24.4888 29.9021 24.3324 31.2109 22.8924C32.3013 21.707 32.6168 19.4024 32.6489 19.1437L32.6527 19.1101C32.6625 18.9996 32.8949 16.377 32.8949 13.7439V11.2824C32.8946 8.64929 32.6625 6.0267 32.6527 5.91627ZM30.9669 13.7439C30.9669 16.181 30.7541 18.6909 30.734 18.9213C30.6522 19.556 30.3197 21.0141 29.7884 21.5916C28.9693 22.4928 28.1278 22.5822 27.5134 22.6472C27.4391 22.6549 27.3703 22.6625 27.3081 22.6703C23.1019 22.9744 16.7823 23.0211 16.4912 23.0229C16.1647 23.0181 8.40736 22.8994 5.97299 22.6733C5.84826 22.6529 5.71349 22.6374 5.57144 22.6213C4.85092 22.5387 3.86462 22.4258 3.10621 21.5916L3.08839 21.5725C2.56638 21.0287 2.24338 19.6652 2.16132 18.9289C2.14601 18.7547 1.92767 16.2152 1.92767 13.7439V11.2824C1.92767 8.84805 2.13999 6.34091 2.16057 6.10575C2.25819 5.35812 2.597 3.98835 3.10621 3.43472C3.95046 2.50615 4.84063 2.40325 5.4294 2.33524C5.48561 2.32871 5.53807 2.32269 5.5865 2.31642C9.85393 2.01074 16.2189 1.96531 16.4473 1.96356C16.6757 1.96506 23.0384 2.01074 27.268 2.31642C27.3199 2.32294 27.3766 2.32947 27.4376 2.33649C28.0432 2.40551 28.9585 2.50991 29.7984 3.40586L29.8062 3.41414C30.3282 3.95798 30.6512 5.34532 30.7333 6.09646C30.7478 6.26085 30.9669 8.80589 30.9669 11.2824V13.7439Z" fill="currentColor" />
</svg>
